<svg width="521" height="203" viewBox="0 0 521 203" fill="none" xmlns="http://www.w3.org/2000/svg">
<path d="M511.385 202.463C509.994 202.463 508.753 202.108 507.661 201.397C506.576 200.679 505.724 199.659 505.103 198.335C504.49 197.004 504.183 195.407 504.183 193.545C504.183 191.682 504.493 190.089 505.114 188.765C505.742 187.442 506.603 186.428 507.694 185.725C508.786 185.022 510.024 184.671 511.408 184.671C512.477 184.671 513.337 184.85 513.988 185.209C514.646 185.561 515.155 185.972 515.514 186.443C515.88 186.914 516.164 187.33 516.366 187.689H516.568V179.151H519.922V202.127H516.647V199.445H516.366C516.164 199.812 515.873 200.231 515.491 200.702C515.117 201.173 514.601 201.584 513.943 201.936C513.285 202.287 512.432 202.463 511.385 202.463ZM512.126 199.602C513.091 199.602 513.906 199.348 514.571 198.84C515.244 198.324 515.753 197.609 516.097 196.697C516.449 195.784 516.624 194.722 516.624 193.511C516.624 192.314 516.452 191.267 516.108 190.37C515.764 189.472 515.259 188.773 514.594 188.272C513.928 187.771 513.105 187.52 512.126 187.52C511.116 187.52 510.275 187.782 509.602 188.306C508.928 188.829 508.42 189.543 508.076 190.448C507.739 191.353 507.571 192.374 507.571 193.511C507.571 194.663 507.743 195.698 508.087 196.618C508.431 197.538 508.94 198.267 509.613 198.806C510.293 199.337 511.131 199.602 512.126 199.602Z" fill="white"/>
<path d="M500.423 179.151V202.127H497.069V179.151H500.423Z" fill="white"/>
<path d="M484.945 202.127V184.895H488.187V187.633H488.366C488.681 186.705 489.234 185.976 490.027 185.445C490.827 184.907 491.732 184.637 492.742 184.637C492.951 184.637 493.198 184.645 493.482 184.66C493.774 184.675 494.002 184.694 494.166 184.716V187.924C494.032 187.887 493.792 187.846 493.448 187.801C493.104 187.749 492.76 187.722 492.416 187.722C491.623 187.722 490.917 187.891 490.296 188.227C489.683 188.556 489.197 189.016 488.838 189.607C488.479 190.191 488.299 190.856 488.299 191.604V202.127H484.945Z" fill="white"/>
<path d="M473.168 202.474C471.553 202.474 470.143 202.104 468.939 201.364C467.735 200.623 466.8 199.588 466.134 198.256C465.469 196.925 465.136 195.369 465.136 193.589C465.136 191.802 465.469 190.239 466.134 188.9C466.8 187.561 467.735 186.522 468.939 185.781C470.143 185.041 471.553 184.671 473.168 184.671C474.784 184.671 476.193 185.041 477.397 185.781C478.602 186.522 479.536 187.561 480.202 188.9C480.868 190.239 481.201 191.802 481.201 193.589C481.201 195.369 480.868 196.925 480.202 198.256C479.536 199.588 478.602 200.623 477.397 201.364C476.193 202.104 474.784 202.474 473.168 202.474ZM473.179 199.659C474.226 199.659 475.094 199.382 475.782 198.828C476.47 198.275 476.979 197.538 477.308 196.618C477.644 195.699 477.813 194.685 477.813 193.578C477.813 192.479 477.644 191.469 477.308 190.549C476.979 189.622 476.47 188.878 475.782 188.317C475.094 187.756 474.226 187.475 473.179 187.475C472.125 187.475 471.25 187.756 470.554 188.317C469.866 188.878 469.354 189.622 469.017 190.549C468.688 191.469 468.524 192.479 468.524 193.578C468.524 194.685 468.688 195.699 469.017 196.618C469.354 197.538 469.866 198.275 470.554 198.828C471.25 199.382 472.125 199.659 473.179 199.659Z" fill="white"/>
<path d="M441.492 202.127L435.12 179.151H438.766L443.242 196.944H443.455L448.111 179.151H451.723L456.379 196.955H456.592L461.057 179.151H464.714L458.331 202.127H454.842L450.007 184.918H449.827L444.992 202.127H441.492Z" fill="white"/>
<path d="M424.653 184.895V187.588H415.241V184.895H424.653ZM417.765 180.767H421.12V197.067C421.12 197.718 421.217 198.208 421.411 198.537C421.606 198.858 421.856 199.079 422.163 199.199C422.477 199.311 422.817 199.367 423.184 199.367C423.453 199.367 423.689 199.348 423.891 199.311C424.093 199.274 424.25 199.244 424.362 199.221L424.968 201.992C424.773 202.067 424.496 202.142 424.137 202.217C423.778 202.299 423.33 202.344 422.791 202.351C421.909 202.366 421.086 202.209 420.323 201.88C419.56 201.551 418.943 201.042 418.472 200.354C418.001 199.666 417.765 198.802 417.765 197.763V180.767Z" fill="white"/>
<path d="M403.467 202.127V184.895H406.709V187.633H406.889C407.203 186.705 407.756 185.976 408.549 185.445C409.349 184.907 410.254 184.637 411.264 184.637C411.473 184.637 411.72 184.645 412.004 184.66C412.296 184.675 412.524 184.694 412.689 184.716V187.924C412.554 187.887 412.315 187.846 411.971 187.801C411.627 187.749 411.283 187.722 410.939 187.722C410.146 187.722 409.439 187.891 408.818 188.227C408.205 188.556 407.719 189.016 407.36 189.607C407.001 190.191 406.822 190.856 406.822 191.604V202.127H403.467Z" fill="white"/>
<path d="M390.497 202.508C389.405 202.508 388.418 202.306 387.536 201.902C386.653 201.491 385.954 200.896 385.438 200.119C384.929 199.341 384.675 198.387 384.675 197.258C384.675 196.286 384.862 195.485 385.236 194.857C385.61 194.229 386.115 193.732 386.75 193.365C387.386 192.999 388.096 192.722 388.882 192.535C389.667 192.348 390.467 192.206 391.282 192.109C392.315 191.989 393.152 191.892 393.795 191.817C394.439 191.735 394.906 191.604 395.198 191.424C395.489 191.245 395.635 190.953 395.635 190.549V190.471C395.635 189.491 395.358 188.732 394.805 188.193C394.259 187.655 393.444 187.386 392.359 187.386C391.23 187.386 390.34 187.636 389.689 188.137C389.046 188.631 388.601 189.181 388.354 189.786L385.202 189.068C385.576 188.021 386.122 187.176 386.84 186.533C387.565 185.882 388.399 185.411 389.342 185.12C390.284 184.82 391.275 184.671 392.315 184.671C393.003 184.671 393.732 184.753 394.502 184.918C395.28 185.075 396.005 185.366 396.678 185.793C397.359 186.219 397.916 186.829 398.35 187.621C398.784 188.407 399.001 189.427 399.001 190.684V202.127H395.725V199.771H395.59C395.373 200.205 395.048 200.631 394.614 201.05C394.181 201.469 393.623 201.816 392.943 202.093C392.262 202.37 391.447 202.508 390.497 202.508ZM391.226 199.816C392.154 199.816 392.946 199.632 393.605 199.266C394.27 198.9 394.775 198.421 395.119 197.83C395.471 197.232 395.646 196.592 395.646 195.912V193.69C395.527 193.81 395.295 193.922 394.951 194.027C394.614 194.124 394.229 194.21 393.795 194.285C393.362 194.352 392.939 194.416 392.528 194.476C392.116 194.528 391.772 194.573 391.496 194.61C390.845 194.693 390.25 194.831 389.712 195.025C389.181 195.22 388.755 195.5 388.433 195.867C388.119 196.226 387.962 196.704 387.962 197.303C387.962 198.133 388.268 198.761 388.882 199.187C389.495 199.606 390.277 199.816 391.226 199.816Z" fill="white"/>
<path d="M357.562 202.127V184.895H360.781V187.7H360.994C361.353 186.75 361.94 186.01 362.756 185.479C363.571 184.94 364.547 184.671 365.684 184.671C366.835 184.671 367.8 184.94 368.578 185.479C369.363 186.017 369.943 186.757 370.317 187.7H370.496C370.908 186.78 371.562 186.047 372.46 185.501C373.357 184.948 374.427 184.671 375.668 184.671C377.231 184.671 378.506 185.161 379.493 186.14C380.488 187.12 380.986 188.597 380.986 190.572V202.127H377.631V190.886C377.631 189.719 377.313 188.874 376.678 188.351C376.042 187.827 375.283 187.565 374.4 187.565C373.308 187.565 372.46 187.902 371.854 188.575C371.248 189.24 370.945 190.097 370.945 191.144V202.127H367.602V190.673C367.602 189.738 367.31 188.986 366.727 188.418C366.144 187.849 365.384 187.565 364.45 187.565C363.814 187.565 363.227 187.733 362.688 188.07C362.157 188.399 361.727 188.859 361.398 189.45C361.077 190.041 360.916 190.725 360.916 191.503V202.127H357.562Z" fill="white"/>
<path d="M350.032 185.187C349.912 184.125 349.419 183.302 348.551 182.719C347.684 182.128 346.592 181.833 345.275 181.833C344.333 181.833 343.518 181.982 342.83 182.281C342.142 182.573 341.607 182.977 341.225 183.493C340.852 184.002 340.665 184.581 340.665 185.232C340.665 185.778 340.792 186.249 341.046 186.645C341.308 187.042 341.648 187.375 342.067 187.644C342.493 187.906 342.949 188.126 343.436 188.306C343.922 188.478 344.389 188.62 344.838 188.732L347.081 189.315C347.814 189.495 348.566 189.738 349.336 190.045C350.107 190.351 350.821 190.755 351.479 191.256C352.137 191.757 352.668 192.378 353.072 193.118C353.483 193.859 353.689 194.745 353.689 195.777C353.689 197.079 353.353 198.234 352.679 199.244C352.014 200.253 351.045 201.05 349.774 201.633C348.51 202.217 346.981 202.508 345.186 202.508C343.465 202.508 341.977 202.235 340.721 201.689C339.464 201.143 338.481 200.369 337.77 199.367C337.06 198.357 336.667 197.161 336.592 195.777H340.07C340.137 196.607 340.407 197.299 340.878 197.853C341.356 198.399 341.966 198.806 342.706 199.075C343.454 199.337 344.273 199.468 345.163 199.468C346.143 199.468 347.014 199.315 347.777 199.008C348.547 198.694 349.153 198.26 349.594 197.707C350.036 197.146 350.256 196.491 350.256 195.744C350.256 195.063 350.062 194.506 349.673 194.072C349.292 193.638 348.772 193.279 348.114 192.995C347.463 192.711 346.726 192.46 345.904 192.243L343.189 191.503C341.349 191.002 339.89 190.265 338.814 189.293C337.744 188.321 337.209 187.034 337.209 185.434C337.209 184.11 337.568 182.955 338.286 181.967C339.004 180.98 339.976 180.214 341.203 179.668C342.43 179.114 343.813 178.837 345.354 178.837C346.909 178.837 348.282 179.11 349.471 179.656C350.668 180.202 351.61 180.954 352.298 181.911C352.986 182.861 353.345 183.953 353.375 185.187H350.032Z" fill="white"/>
<path d="M308.961 202.127H305.281L313.549 179.151H317.554L325.822 202.127H322.142L315.647 183.325H315.468L308.961 202.127ZM309.578 193.129H321.514V196.046H309.578V193.129Z" fill="white"/>
<path d="M286.266 202.127V184.895H289.508V187.633H289.688C290.002 186.705 290.555 185.976 291.348 185.445C292.148 184.907 293.053 184.637 294.063 184.637C294.272 184.637 294.519 184.645 294.803 184.66C295.095 184.675 295.323 184.694 295.488 184.716V187.924C295.353 187.887 295.114 187.846 294.77 187.801C294.426 187.749 294.082 187.722 293.738 187.722C292.945 187.722 292.238 187.891 291.617 188.227C291.004 188.556 290.518 189.016 290.159 189.607C289.8 190.191 289.62 190.856 289.62 191.604V202.127H286.266Z" fill="white"/>
<path d="M274.489 202.474C272.874 202.474 271.464 202.104 270.26 201.364C269.056 200.623 268.121 199.588 267.455 198.256C266.79 196.925 266.457 195.369 266.457 193.589C266.457 191.802 266.79 190.239 267.455 188.9C268.121 187.561 269.056 186.522 270.26 185.781C271.464 185.041 272.874 184.671 274.489 184.671C276.105 184.671 277.515 185.041 278.719 185.781C279.923 186.522 280.858 187.561 281.523 188.9C282.189 190.239 282.522 191.802 282.522 193.589C282.522 195.369 282.189 196.925 281.523 198.256C280.858 199.588 279.923 200.623 278.719 201.364C277.515 202.104 276.105 202.474 274.489 202.474ZM274.501 199.659C275.548 199.659 276.415 199.382 277.103 198.828C277.791 198.275 278.3 197.538 278.629 196.618C278.966 195.699 279.134 194.685 279.134 193.578C279.134 192.479 278.966 191.469 278.629 190.549C278.3 189.622 277.791 188.878 277.103 188.317C276.415 187.756 275.548 187.475 274.501 187.475C273.446 187.475 272.571 187.756 271.876 188.317C271.187 188.878 270.675 189.622 270.339 190.549C270.01 191.469 269.845 192.479 269.845 193.578C269.845 194.685 270.01 195.699 270.339 196.618C270.675 197.538 271.187 198.275 271.876 198.828C272.571 199.382 273.446 199.659 274.501 199.659Z" fill="white"/>
<path d="M250.256 202.127V179.151H264.504V182.135H253.723V189.136H263.483V192.109H253.723V202.127H250.256Z" fill="white"/>
<path d="M237.601 189.102L234.561 189.641C234.434 189.252 234.232 188.882 233.956 188.53C233.686 188.178 233.32 187.891 232.856 187.666C232.392 187.442 231.813 187.33 231.117 187.33C230.167 187.33 229.375 187.543 228.739 187.969C228.103 188.388 227.785 188.93 227.785 189.596C227.785 190.172 227.999 190.635 228.425 190.987C228.851 191.338 229.539 191.626 230.489 191.851L233.226 192.479C234.812 192.845 235.994 193.41 236.771 194.173C237.549 194.936 237.938 195.927 237.938 197.146C237.938 198.178 237.639 199.098 237.041 199.905C236.45 200.706 235.623 201.334 234.561 201.79C233.507 202.246 232.284 202.474 230.893 202.474C228.963 202.474 227.389 202.063 226.17 201.24C224.951 200.41 224.203 199.232 223.926 197.707L227.168 197.213C227.37 198.058 227.785 198.698 228.414 199.131C229.042 199.558 229.861 199.771 230.87 199.771C231.97 199.771 232.849 199.543 233.507 199.087C234.165 198.623 234.494 198.058 234.494 197.393C234.494 196.854 234.292 196.402 233.888 196.035C233.492 195.669 232.882 195.392 232.06 195.205L229.143 194.565C227.535 194.199 226.346 193.616 225.575 192.815C224.813 192.015 224.431 191.002 224.431 189.775C224.431 188.758 224.715 187.868 225.284 187.105C225.852 186.342 226.637 185.748 227.64 185.322C228.642 184.888 229.79 184.671 231.084 184.671C232.946 184.671 234.412 185.075 235.481 185.882C236.551 186.683 237.257 187.756 237.601 189.102Z" fill="white"/>
<path d="M209.162 191.896V202.127H205.808V184.895H209.028V187.7H209.241C209.637 186.787 210.258 186.054 211.103 185.501C211.956 184.948 213.029 184.671 214.323 184.671C215.497 184.671 216.525 184.918 217.408 185.411C218.29 185.897 218.975 186.623 219.461 187.588C219.947 188.552 220.19 189.745 220.19 191.166V202.127H216.836V191.57C216.836 190.321 216.51 189.345 215.86 188.642C215.209 187.932 214.315 187.576 213.179 187.576C212.401 187.576 211.709 187.745 211.103 188.081C210.505 188.418 210.03 188.911 209.678 189.562C209.334 190.205 209.162 190.983 209.162 191.896Z" fill="white"/>
<path d="M194.031 202.474C192.416 202.474 191.006 202.104 189.802 201.364C188.598 200.623 187.663 199.588 186.997 198.256C186.332 196.925 185.999 195.369 185.999 193.589C185.999 191.802 186.332 190.239 186.997 188.9C187.663 187.561 188.598 186.522 189.802 185.781C191.006 185.041 192.416 184.671 194.031 184.671C195.647 184.671 197.057 185.041 198.261 185.781C199.465 186.522 200.4 187.561 201.065 188.9C201.731 190.239 202.064 191.802 202.064 193.589C202.064 195.369 201.731 196.925 201.065 198.256C200.4 199.588 199.465 200.623 198.261 201.364C197.057 202.104 195.647 202.474 194.031 202.474ZM194.043 199.659C195.09 199.659 195.957 199.382 196.645 198.828C197.333 198.275 197.842 197.538 198.171 196.618C198.508 195.699 198.676 194.685 198.676 193.578C198.676 192.479 198.508 191.469 198.171 190.549C197.842 189.622 197.333 188.878 196.645 188.317C195.957 187.756 195.09 187.475 194.043 187.475C192.988 187.475 192.113 187.756 191.417 188.317C190.729 188.878 190.217 189.622 189.881 190.549C189.552 191.469 189.387 192.479 189.387 193.578C189.387 194.685 189.552 195.699 189.881 196.618C190.217 197.538 190.729 198.275 191.417 198.828C192.113 199.382 192.988 199.659 194.043 199.659Z" fill="white"/>
<path d="M178.908 202.127V184.895H182.262V202.127H178.908ZM180.602 182.237C180.018 182.237 179.517 182.042 179.098 181.653C178.687 181.257 178.481 180.786 178.481 180.24C178.481 179.686 178.687 179.215 179.098 178.826C179.517 178.43 180.018 178.232 180.602 178.232C181.185 178.232 181.682 178.43 182.094 178.826C182.513 179.215 182.722 179.686 182.722 180.24C182.722 180.786 182.513 181.257 182.094 181.653C181.682 182.042 181.185 182.237 180.602 182.237Z" fill="white"/>
<path d="M175.195 184.895V187.588H165.783V184.895H175.195ZM168.307 180.767H171.661V197.067C171.661 197.718 171.758 198.208 171.953 198.537C172.147 198.858 172.398 199.079 172.704 199.199C173.019 199.311 173.359 199.367 173.725 199.367C173.995 199.367 174.23 199.348 174.432 199.311C174.634 199.274 174.791 199.244 174.903 199.221L175.509 201.992C175.315 202.067 175.038 202.142 174.679 202.217C174.32 202.299 173.871 202.344 173.333 202.351C172.45 202.366 171.627 202.209 170.865 201.88C170.102 201.551 169.485 201.042 169.014 200.354C168.542 199.666 168.307 198.802 168.307 197.763V180.767Z" fill="white"/>
<path d="M159.28 194.981V184.895H162.646V202.127H159.348V199.143H159.168C158.772 200.063 158.136 200.829 157.261 201.443C156.393 202.048 155.313 202.351 154.019 202.351C152.912 202.351 151.932 202.108 151.08 201.622C150.234 201.128 149.569 200.399 149.083 199.434C148.604 198.47 148.365 197.277 148.365 195.856V184.895H151.719V195.452C151.719 196.626 152.044 197.561 152.695 198.257C153.346 198.952 154.191 199.3 155.23 199.3C155.859 199.3 156.483 199.143 157.104 198.829C157.732 198.515 158.252 198.04 158.663 197.404C159.082 196.768 159.288 195.96 159.28 194.981Z" fill="white"/>
<path d="M143.851 179.151V202.127H140.497V179.151H143.851Z" fill="white"/>
<path d="M128.722 202.474C127.106 202.474 125.697 202.104 124.492 201.364C123.288 200.623 122.354 199.588 121.688 198.256C121.022 196.925 120.689 195.369 120.689 193.589C120.689 191.802 121.022 190.239 121.688 188.9C122.354 187.561 123.288 186.522 124.492 185.781C125.697 185.041 127.106 184.671 128.722 184.671C130.337 184.671 131.747 185.041 132.951 185.781C134.155 186.522 135.09 187.561 135.756 188.9C136.421 190.239 136.754 191.802 136.754 193.589C136.754 195.369 136.421 196.925 135.756 198.256C135.09 199.588 134.155 200.623 132.951 201.364C131.747 202.104 130.337 202.474 128.722 202.474ZM128.733 199.659C129.78 199.659 130.648 199.382 131.336 198.828C132.024 198.275 132.532 197.538 132.861 196.618C133.198 195.699 133.366 194.685 133.366 193.578C133.366 192.479 133.198 191.469 132.861 190.549C132.532 189.622 132.024 188.878 131.336 188.317C130.648 187.756 129.78 187.475 128.733 187.475C127.679 187.475 126.803 187.756 126.108 188.317C125.42 188.878 124.908 189.622 124.571 190.549C124.242 191.469 124.077 192.479 124.077 193.578C124.077 194.685 124.242 195.699 124.571 196.618C124.908 197.538 125.42 198.275 126.108 198.828C126.803 199.382 127.679 199.659 128.733 199.659Z" fill="white"/>
<path d="M113.933 185.187C113.813 184.125 113.32 183.302 112.452 182.719C111.584 182.128 110.492 181.833 109.176 181.833C108.234 181.833 107.419 181.982 106.731 182.281C106.043 182.573 105.508 182.977 105.126 183.493C104.752 184.002 104.565 184.581 104.565 185.232C104.565 185.778 104.693 186.249 104.947 186.645C105.209 187.042 105.549 187.375 105.968 187.644C106.394 187.906 106.85 188.126 107.336 188.306C107.823 188.478 108.29 188.62 108.739 188.732L110.982 189.315C111.715 189.495 112.467 189.738 113.237 190.045C114.008 190.351 114.722 190.755 115.38 191.256C116.038 191.757 116.569 192.378 116.973 193.118C117.384 193.859 117.59 194.745 117.59 195.777C117.59 197.079 117.253 198.234 116.58 199.244C115.915 200.253 114.946 201.05 113.675 201.633C112.411 202.217 110.881 202.508 109.086 202.508C107.366 202.508 105.878 202.235 104.622 201.689C103.365 201.143 102.382 200.369 101.671 199.367C100.961 198.357 100.568 197.161 100.493 195.777H103.971C104.038 196.607 104.307 197.299 104.779 197.853C105.257 198.399 105.867 198.806 106.607 199.075C107.355 199.337 108.174 199.468 109.064 199.468C110.044 199.468 110.915 199.315 111.678 199.008C112.448 198.694 113.054 198.26 113.495 197.707C113.937 197.146 114.157 196.491 114.157 195.744C114.157 195.063 113.963 194.506 113.574 194.072C113.192 193.638 112.673 193.279 112.014 192.995C111.364 192.711 110.627 192.46 109.804 192.243L107.09 191.503C105.25 191.002 103.791 190.265 102.714 189.293C101.645 188.321 101.11 187.034 101.11 185.434C101.11 184.11 101.469 182.955 102.187 181.967C102.905 180.98 103.877 180.214 105.104 179.668C106.33 179.114 107.714 178.837 109.255 178.837C110.81 178.837 112.183 179.11 113.372 179.656C114.569 180.202 115.511 180.954 116.199 181.911C116.887 182.861 117.246 183.953 117.276 185.187H113.933Z" fill="white"/>
<path d="M89.0612 184.895V187.588H79.6489V184.895H89.0612ZM82.1731 180.767H85.5274V197.067C85.5274 197.718 85.6246 198.208 85.819 198.537C86.0135 198.858 86.264 199.079 86.5707 199.199C86.8848 199.311 87.2251 199.367 87.5916 199.367C87.8608 199.367 88.0964 199.348 88.2983 199.311C88.5002 199.274 88.6573 199.244 88.7695 199.221L89.3753 201.992C89.1808 202.067 88.9041 202.142 88.5451 202.217C88.1861 202.299 87.7374 202.344 87.1989 202.351C86.3164 202.366 85.4937 202.209 84.7309 201.88C83.968 201.551 83.351 201.042 82.8798 200.354C82.4087 199.666 82.1731 198.802 82.1731 197.763V180.767Z" fill="white"/>
<path d="M67.8755 202.127V184.895H71.1176V187.633H71.2971C71.6112 186.705 72.1647 185.976 72.9574 185.445C73.7577 184.907 74.6626 184.637 75.6723 184.637C75.8817 184.637 76.1285 184.645 76.4127 184.66C76.7044 184.675 76.9325 184.694 77.097 184.716V187.924C76.9624 187.887 76.7231 187.846 76.379 187.801C76.035 187.749 75.691 187.722 75.3469 187.722C74.5542 187.722 73.8474 187.891 73.2267 188.227C72.6134 188.556 72.1273 189.016 71.7683 189.607C71.4093 190.191 71.2298 190.856 71.2298 191.604V202.127H67.8755Z" fill="white"/>
<path d="M54.9049 202.508C53.8129 202.508 52.8257 202.306 51.9432 201.902C51.0607 201.491 50.3614 200.896 49.8454 200.119C49.3368 199.341 49.0825 198.387 49.0825 197.258C49.0825 196.286 49.2695 195.485 49.6434 194.857C50.0174 194.229 50.5222 193.732 51.1579 193.365C51.7936 192.999 52.5041 192.722 53.2894 192.535C54.0747 192.348 54.875 192.206 55.6902 192.109C56.7223 191.989 57.5599 191.892 58.2031 191.817C58.8463 191.735 59.3137 191.604 59.6054 191.424C59.8971 191.245 60.0429 190.953 60.0429 190.549V190.471C60.0429 189.491 59.7662 188.732 59.2127 188.193C58.6668 187.655 57.8516 187.386 56.7671 187.386C55.6378 187.386 54.7478 187.636 54.0971 188.137C53.454 188.631 53.009 189.181 52.7622 189.786L49.6098 189.068C49.9837 188.021 50.5297 187.176 51.2477 186.533C51.9731 185.882 52.807 185.411 53.7494 185.12C54.6917 184.82 55.6827 184.671 56.7222 184.671C57.4103 184.671 58.1395 184.753 58.9098 184.918C59.6876 185.075 60.4131 185.366 61.0862 185.793C61.7668 186.219 62.324 186.829 62.7577 187.621C63.1915 188.407 63.4084 189.427 63.4084 190.684V202.127H60.1326V199.771H59.998C59.7811 200.205 59.4558 200.631 59.022 201.05C58.5882 201.469 58.0311 201.816 57.3505 202.093C56.6699 202.37 55.8547 202.508 54.9049 202.508ZM55.6341 199.816C56.5615 199.816 57.3542 199.632 58.0124 199.266C58.678 198.9 59.1828 198.421 59.5268 197.83C59.8784 197.232 60.0541 196.592 60.0541 195.912V193.69C59.9344 193.81 59.7026 193.922 59.3586 194.027C59.022 194.124 58.6369 194.21 58.2031 194.285C57.7693 194.352 57.3467 194.416 56.9354 194.476C56.5241 194.528 56.18 194.573 55.9033 194.61C55.2526 194.693 54.6581 194.831 54.1196 195.025C53.5886 195.22 53.1623 195.5 52.8407 195.867C52.5266 196.226 52.3695 196.704 52.3695 197.303C52.3695 198.133 52.6761 198.761 53.2894 199.187C53.9027 199.606 54.6842 199.816 55.6341 199.816Z" fill="white"/>
<path d="M21.9692 202.127V184.895H25.1889V187.7H25.4021C25.7611 186.75 26.3482 186.01 27.1634 185.479C27.9786 184.94 28.9546 184.671 30.0914 184.671C31.2431 184.671 32.2079 184.94 32.9857 185.479C33.771 186.017 34.3506 186.757 34.7246 187.7H34.904C35.3154 186.78 35.9698 186.047 36.8673 185.501C37.7647 184.948 38.8342 184.671 40.0757 184.671C41.6388 184.671 42.914 185.161 43.9012 186.14C44.8959 187.12 45.3932 188.597 45.3932 190.572V202.127H42.0389V190.886C42.0389 189.719 41.7211 188.874 41.0854 188.351C40.4497 187.827 39.6906 187.565 38.808 187.565C37.7161 187.565 36.8673 187.902 36.2615 188.575C35.6557 189.24 35.3528 190.097 35.3528 191.144V202.127H32.0097V190.673C32.0097 189.738 31.718 188.986 31.1347 188.418C30.5513 187.849 29.7922 187.565 28.8573 187.565C28.2216 187.565 27.6345 187.733 27.096 188.07C26.565 188.399 26.135 188.859 25.8059 189.45C25.4843 190.041 25.3235 190.725 25.3235 191.503V202.127H21.9692Z" fill="white"/>
<path d="M14.4396 185.187C14.32 184.125 13.8264 183.302 12.9588 182.719C12.0913 182.128 10.9993 181.833 9.68304 181.833C8.74069 181.833 7.92549 181.982 7.23743 182.281C6.54937 182.573 6.01462 182.977 5.6332 183.493C5.25925 184.002 5.07228 184.581 5.07228 185.232C5.07228 185.778 5.19942 186.249 5.4537 186.645C5.71547 187.042 6.05576 187.375 6.47458 187.644C6.90088 187.906 7.35709 188.126 7.84322 188.306C8.32935 188.478 8.79678 188.62 9.24552 188.732L11.4892 189.315C12.2221 189.495 12.9738 189.738 13.7441 190.045C14.5144 190.351 15.2287 190.755 15.8868 191.256C16.545 191.757 17.076 192.378 17.4798 193.118C17.8912 193.859 18.0968 194.745 18.0968 195.777C18.0968 197.079 17.7603 198.234 17.0872 199.244C16.4216 200.253 15.453 201.05 14.1816 201.633C12.9177 202.217 11.3882 202.508 9.59329 202.508C7.87314 202.508 6.38483 202.235 5.12837 201.689C3.87191 201.143 2.88843 200.369 2.17793 199.367C1.46743 198.357 1.07479 197.161 1 195.777H4.4777C4.54501 196.607 4.81425 197.299 5.28543 197.853C5.76408 198.399 6.37361 198.806 7.11402 199.075C7.86192 199.337 8.68086 199.468 9.57085 199.468C10.5506 199.468 11.4219 199.315 12.1847 199.008C12.9551 198.694 13.5609 198.26 14.0021 197.707C14.4434 197.146 14.664 196.491 14.664 195.744C14.664 195.063 14.4696 194.506 14.0806 194.072C13.6992 193.638 13.1794 193.279 12.5213 192.995C11.8706 192.711 11.1339 192.46 10.3113 192.243L7.59642 191.503C5.7566 191.002 4.29821 190.265 3.22124 189.293C2.15176 188.321 1.61701 187.034 1.61701 185.434C1.61701 184.11 1.976 182.955 2.69398 181.967C3.41195 180.98 4.38422 180.214 5.61076 179.668C6.83731 179.114 8.22091 178.837 9.76157 178.837C11.3172 178.837 12.6896 179.11 13.8787 179.656C15.0753 180.202 16.0177 180.954 16.7058 181.911C17.3938 182.861 17.7528 183.953 17.7827 185.187H14.4396Z" fill="white"/>
<path d="M511.495 147.389C511.362 146.213 510.816 145.302 509.855 144.656C508.894 144.002 507.685 143.675 506.227 143.675C505.184 143.675 504.281 143.84 503.519 144.172C502.757 144.495 502.165 144.942 501.743 145.513C501.328 146.077 501.121 146.718 501.121 147.439C501.121 148.044 501.262 148.565 501.544 149.004C501.834 149.443 502.211 149.812 502.674 150.11C503.146 150.4 503.652 150.644 504.19 150.843C504.728 151.033 505.246 151.191 505.743 151.315L508.227 151.961C509.039 152.16 509.871 152.429 510.725 152.768C511.578 153.108 512.368 153.555 513.097 154.11C513.826 154.665 514.414 155.352 514.861 156.172C515.317 156.992 515.545 157.974 515.545 159.117C515.545 160.558 515.172 161.837 514.427 162.955C513.689 164.073 512.617 164.956 511.209 165.602C509.809 166.248 508.116 166.571 506.128 166.571C504.223 166.571 502.575 166.268 501.184 165.664C499.792 165.059 498.703 164.202 497.916 163.092C497.129 161.974 496.695 160.649 496.612 159.117H500.463C500.538 160.036 500.836 160.802 501.357 161.415C501.887 162.02 502.563 162.471 503.382 162.769C504.211 163.059 505.118 163.204 506.103 163.204C507.188 163.204 508.153 163.034 508.998 162.695C509.851 162.347 510.522 161.866 511.01 161.253C511.499 160.632 511.743 159.908 511.743 159.079C511.743 158.326 511.528 157.709 511.097 157.228C510.675 156.748 510.099 156.35 509.37 156.036C508.65 155.721 507.834 155.444 506.923 155.203L503.917 154.383C501.879 153.829 500.264 153.013 499.072 151.936C497.887 150.859 497.295 149.435 497.295 147.663C497.295 146.197 497.693 144.917 498.488 143.824C499.283 142.731 500.359 141.882 501.718 141.277C503.076 140.664 504.608 140.358 506.314 140.358C508.037 140.358 509.557 140.66 510.874 141.265C512.199 141.869 513.242 142.702 514.004 143.762C514.766 144.813 515.164 146.023 515.197 147.389H511.495Z" fill="#00AEEF"/>
<path d="M492.018 140.705V166.148H488.49L475.558 147.488H475.322V166.148H471.483V140.705H475.036L487.981 159.39H488.217V140.705H492.018Z" fill="#00AEEF"/>
<path d="M466.697 153.427C466.697 156.143 466.2 158.479 465.206 160.434C464.212 162.38 462.85 163.879 461.119 164.931C459.396 165.974 457.438 166.496 455.243 166.496C453.04 166.496 451.073 165.974 449.342 164.931C447.619 163.879 446.261 162.376 445.267 160.421C444.273 158.467 443.776 156.135 443.776 153.427C443.776 150.71 444.273 148.379 445.267 146.433C446.261 144.478 447.619 142.979 449.342 141.935C451.073 140.884 453.04 140.358 455.243 140.358C457.438 140.358 459.396 140.884 461.119 141.935C462.85 142.979 464.212 144.478 465.206 146.433C466.2 148.379 466.697 150.71 466.697 153.427ZM462.896 153.427C462.896 151.356 462.56 149.613 461.889 148.197C461.227 146.772 460.316 145.696 459.156 144.967C458.005 144.23 456.701 143.861 455.243 143.861C453.777 143.861 452.468 144.23 451.317 144.967C450.166 145.696 449.255 146.772 448.584 148.197C447.922 149.613 447.59 151.356 447.59 153.427C447.59 155.497 447.922 157.245 448.584 158.669C449.255 160.086 450.166 161.162 451.317 161.899C452.468 162.628 453.777 162.993 455.243 162.993C456.701 162.993 458.005 162.628 459.156 161.899C460.316 161.162 461.227 160.086 461.889 158.669C462.56 157.245 462.896 155.497 462.896 153.427Z" fill="#00AEEF"/>
<path d="M439.006 140.705V166.148H435.167V140.705H439.006Z" fill="#00AEEF"/>
<path d="M411.125 144.01V140.705H430.815V144.01H422.877V166.148H419.05V144.01H411.125Z" fill="#00AEEF"/>
<path d="M402.948 140.705H406.799V157.439C406.799 159.22 406.381 160.798 405.544 162.173C404.708 163.539 403.532 164.616 402.016 165.403C400.5 166.181 398.724 166.57 396.686 166.57C394.657 166.57 392.885 166.181 391.369 165.403C389.854 164.616 388.678 163.539 387.841 162.173C387.005 160.798 386.586 159.22 386.586 157.439V140.705H390.425V157.129C390.425 158.28 390.678 159.303 391.183 160.197C391.696 161.092 392.421 161.796 393.357 162.309C394.293 162.814 395.403 163.067 396.686 163.067C397.978 163.067 399.092 162.814 400.028 162.309C400.972 161.796 401.693 161.092 402.19 160.197C402.695 159.303 402.948 158.28 402.948 157.129V140.705Z" fill="#00AEEF"/>
<path d="M366.84 166.148V140.705H370.679V162.843H382.207V166.148H366.84Z" fill="#00AEEF"/>
<path d="M362.053 153.427C362.053 156.143 361.557 158.479 360.563 160.434C359.569 162.38 358.206 163.879 356.475 164.931C354.753 165.974 352.794 166.496 350.599 166.496C348.396 166.496 346.429 165.974 344.698 164.931C342.976 163.879 341.617 162.376 340.624 160.421C339.63 158.467 339.133 156.135 339.133 153.427C339.133 150.71 339.63 148.379 340.624 146.433C341.617 144.478 342.976 142.979 344.698 141.935C346.429 140.884 348.396 140.358 350.599 140.358C352.794 140.358 354.753 140.884 356.475 141.935C358.206 142.979 359.569 144.478 360.563 146.433C361.557 148.379 362.053 150.71 362.053 153.427ZM358.252 153.427C358.252 151.356 357.917 149.613 357.246 148.197C356.583 146.772 355.672 145.696 354.513 144.967C353.361 144.23 352.057 143.861 350.599 143.861C349.133 143.861 347.825 144.23 346.674 144.967C345.522 145.696 344.611 146.772 343.941 148.197C343.278 149.613 342.947 151.356 342.947 153.427C342.947 155.497 343.278 157.245 343.941 158.669C344.611 160.086 345.522 161.162 346.674 161.899C347.825 162.628 349.133 162.993 350.599 162.993C352.057 162.993 353.361 162.628 354.513 161.899C355.672 161.162 356.583 160.086 357.246 158.669C357.917 157.245 358.252 155.497 358.252 153.427Z" fill="#00AEEF"/>
<path d="M331.316 147.389C331.183 146.213 330.636 145.302 329.676 144.656C328.715 144.002 327.506 143.675 326.048 143.675C325.005 143.675 324.102 143.84 323.34 144.172C322.578 144.495 321.986 144.942 321.563 145.513C321.149 146.077 320.942 146.718 320.942 147.439C320.942 148.044 321.083 148.565 321.365 149.004C321.654 149.443 322.031 149.812 322.495 150.11C322.967 150.4 323.472 150.644 324.011 150.843C324.549 151.033 325.067 151.191 325.564 151.315L328.048 151.961C328.86 152.16 329.692 152.429 330.545 152.768C331.398 153.108 332.189 153.555 332.918 154.11C333.647 154.665 334.235 155.352 334.682 156.172C335.138 156.992 335.365 157.974 335.365 159.117C335.365 160.558 334.993 161.837 334.247 162.955C333.51 164.073 332.438 164.956 331.03 165.602C329.63 166.248 327.936 166.571 325.949 166.571C324.044 166.571 322.396 166.268 321.004 165.664C319.613 165.059 318.524 164.202 317.737 163.092C316.95 161.974 316.515 160.649 316.433 159.117H320.284C320.358 160.036 320.656 160.802 321.178 161.415C321.708 162.02 322.383 162.471 323.203 162.769C324.031 163.059 324.938 163.204 325.924 163.204C327.009 163.204 327.974 163.034 328.818 162.695C329.672 162.347 330.342 161.866 330.831 161.253C331.32 160.632 331.564 159.908 331.564 159.079C331.564 158.326 331.349 157.709 330.918 157.228C330.496 156.748 329.92 156.35 329.191 156.036C328.471 155.721 327.655 155.444 326.744 155.203L323.737 154.383C321.7 153.829 320.085 153.013 318.892 151.936C317.708 150.859 317.116 149.435 317.116 147.663C317.116 146.197 317.513 144.917 318.309 143.824C319.104 142.731 320.18 141.882 321.539 141.277C322.897 140.664 324.429 140.358 326.135 140.358C327.858 140.358 329.378 140.66 330.694 141.265C332.02 141.869 333.063 142.702 333.825 143.762C334.587 144.813 334.985 146.023 335.018 147.389H331.316Z" fill="#00AEEF"/>
<path d="M282.216 166.148V140.705H286.055V151.762H298.739V140.705H302.59V166.148H298.739V155.054H286.055V166.148H282.216Z" fill="#00AEEF"/>
<path d="M277.623 148.979H273.747C273.598 148.151 273.321 147.422 272.915 146.793C272.509 146.163 272.012 145.629 271.424 145.19C270.836 144.751 270.177 144.42 269.449 144.196C268.728 143.973 267.962 143.861 267.15 143.861C265.684 143.861 264.372 144.23 263.212 144.967C262.061 145.704 261.15 146.785 260.479 148.209C259.817 149.634 259.485 151.373 259.485 153.427C259.485 155.497 259.817 157.245 260.479 158.669C261.15 160.094 262.065 161.171 263.225 161.899C264.384 162.628 265.689 162.993 267.138 162.993C267.941 162.993 268.703 162.885 269.424 162.67C270.153 162.446 270.811 162.119 271.399 161.688C271.987 161.258 272.484 160.732 272.89 160.111C273.304 159.481 273.59 158.761 273.747 157.949L277.623 157.961C277.416 159.212 277.014 160.363 276.418 161.415C275.83 162.458 275.072 163.361 274.145 164.123C273.225 164.877 272.173 165.461 270.989 165.875C269.805 166.289 268.513 166.496 267.113 166.496C264.91 166.496 262.947 165.974 261.225 164.931C259.502 163.879 258.144 162.376 257.15 160.421C256.164 158.467 255.671 156.135 255.671 153.427C255.671 150.71 256.168 148.379 257.162 146.433C258.156 144.478 259.514 142.979 261.237 141.935C262.96 140.884 264.918 140.358 267.113 140.358C268.463 140.358 269.722 140.552 270.89 140.942C272.066 141.323 273.122 141.886 274.058 142.631C274.993 143.368 275.768 144.271 276.381 145.339C276.994 146.4 277.408 147.613 277.623 148.979Z" fill="#00AEEF"/>
<path d="M235.412 166.148V140.705H251.363V144.01H239.251V151.762H250.531V155.054H239.251V162.843H251.512V166.148H235.412Z" fill="#00AEEF"/>
<path d="M211.37 144.01V140.705H231.06V144.01H223.122V166.148H219.296V144.01H211.37Z" fill="#00AEEF"/>
<path d="M182.288 166.148V140.705H198.239V144.01H186.127V151.762H197.407V155.054H186.127V162.843H198.388V166.148H182.288Z" fill="#00AEEF"/>
<path d="M160.016 140.705L167.097 161.427H167.383L174.464 140.705H178.613L169.458 166.148H165.023L155.867 140.705H160.016Z" fill="#00AEEF"/>
<path d="M138.111 166.148H134.036L143.192 140.705H147.627L156.783 166.148H152.708L145.515 145.327H145.316L138.111 166.148ZM138.794 156.185H152.012V159.415H138.794V156.185Z" fill="#00AEEF"/>
<path d="M108.931 166.148L101.875 140.705H105.913L110.869 160.409H111.105L116.261 140.705H120.261L125.417 160.421H125.653L130.597 140.705H134.647L127.578 166.148H123.715L118.361 147.091H118.162L112.807 166.148H108.931Z" fill="#00AEEF"/>
<path d="M70.6499 144.01V140.705H90.3406V144.01H82.4022V166.148H78.5759V144.01H70.6499Z" fill="#00AEEF"/>
<path d="M51.4072 166.148V140.705H67.1846V144.01H55.246V151.762H66.0541V155.054H55.246V166.148H51.4072Z" fill="#00AEEF"/>
<path d="M46.6209 153.427C46.6209 156.143 46.124 158.479 45.1301 160.434C44.1363 162.38 42.7739 163.879 41.0429 164.931C39.3202 165.974 37.3615 166.496 35.1668 166.496C32.9637 166.496 30.9967 165.974 29.2658 164.931C27.5431 163.879 26.1848 162.376 25.191 160.421C24.1971 158.467 23.7002 156.135 23.7002 153.427C23.7002 150.71 24.1971 148.379 25.191 146.433C26.1848 144.478 27.5431 142.979 29.2658 141.935C30.9967 140.884 32.9637 140.358 35.1668 140.358C37.3615 140.358 39.3202 140.884 41.0429 141.935C42.7739 142.979 44.1363 144.478 45.1301 146.433C46.124 148.379 46.6209 150.71 46.6209 153.427ZM42.8194 153.427C42.8194 151.356 42.484 149.613 41.8131 148.197C41.1506 146.772 40.2395 145.696 39.08 144.967C37.9288 144.23 36.6244 143.861 35.1668 143.861C33.7008 143.861 32.3922 144.23 31.241 144.967C30.0898 145.696 29.1788 146.772 28.5079 148.197C27.8454 149.613 27.5141 151.356 27.5141 153.427C27.5141 155.497 27.8454 157.245 28.5079 158.669C29.1788 160.086 30.0898 161.162 31.241 161.899C32.3922 162.628 33.7008 162.993 35.1668 162.993C36.6244 162.993 37.9288 162.628 39.08 161.899C40.2395 161.162 41.1506 160.086 41.8131 158.669C42.484 157.245 42.8194 155.497 42.8194 153.427Z" fill="#00AEEF"/>
<path d="M15.8829 147.389C15.7504 146.213 15.2038 145.302 14.2431 144.656C13.2823 144.002 12.0732 143.675 10.6155 143.675C9.57196 143.675 8.66922 143.84 7.90726 144.172C7.14531 144.495 6.55314 144.942 6.13075 145.513C5.71665 146.077 5.5096 146.718 5.5096 147.439C5.5096 148.044 5.65039 148.565 5.93198 149.004C6.22186 149.443 6.59869 149.812 7.06249 150.11C7.53457 150.4 8.03978 150.644 8.57811 150.843C9.11645 151.033 9.63408 151.191 10.131 151.315L12.6156 151.961C13.4273 152.16 14.2596 152.429 15.1127 152.768C15.9657 153.108 16.7567 153.555 17.4855 154.11C18.2143 154.665 18.8024 155.352 19.2496 156.172C19.7051 156.992 19.9329 157.974 19.9329 159.117C19.9329 160.558 19.5602 161.837 18.8148 162.955C18.0777 164.073 17.0051 164.956 15.5972 165.602C14.1975 166.248 12.5038 166.571 10.5161 166.571C8.61124 166.571 6.96311 166.268 5.57171 165.664C4.18032 165.059 3.09123 164.202 2.30443 163.092C1.51763 161.974 1.08282 160.649 1 159.117H4.85117C4.92571 160.036 5.22387 160.802 5.74564 161.415C6.27569 162.02 6.95068 162.471 7.77061 162.769C8.59882 163.059 9.50571 163.204 10.4913 163.204C11.5762 163.204 12.5411 163.034 13.3859 162.695C14.2389 162.347 14.9098 161.866 15.3984 161.253C15.8871 160.632 16.1314 159.908 16.1314 159.079C16.1314 158.326 15.916 157.709 15.4854 157.228C15.063 156.748 14.4874 156.35 13.7586 156.036C13.038 155.721 12.2222 155.444 11.3112 155.203L8.3048 154.383C6.26741 153.829 4.6524 153.013 3.45978 151.936C2.27544 150.859 1.68327 149.435 1.68327 147.663C1.68327 146.197 2.08081 144.917 2.87589 143.824C3.67097 142.731 4.74765 141.882 6.10591 141.277C7.46417 140.664 8.99636 140.358 10.7025 140.358C12.4251 140.358 13.9449 140.66 15.2618 141.265C16.5869 141.869 17.6304 142.702 18.3924 143.762C19.1543 144.813 19.5519 146.023 19.585 147.389H15.8829Z" fill="#00AEEF"/>
<path d="M1 172.401L519.923 172.401" stroke="white" stroke-width="0.5" stroke-linecap="round"/>
<path d="M323.358 62.6789C323.358 97.2954 295.295 125.358 260.679 125.358C226.062 125.358 198 97.2954 198 62.6789C198 28.0623 226.062 0 260.679 0C295.295 0 323.358 28.0623 323.358 62.6789ZM199.935 62.6789C199.935 96.2267 227.131 123.423 260.679 123.423C294.227 123.423 321.423 96.2267 321.423 62.6789C321.423 29.1311 294.227 1.9352 260.679 1.9352C227.131 1.9352 199.935 29.1311 199.935 62.6789Z" fill="#00AEEF"/>
<path d="M318.134 62.6788C318.134 94.4106 292.41 120.134 260.678 120.134C228.946 120.134 203.223 94.4106 203.223 62.6788C203.223 30.9469 228.946 5.22314 260.678 5.22314C292.41 5.22314 318.134 30.9469 318.134 62.6788ZM204.997 62.6788C204.997 93.4309 229.926 118.36 260.678 118.36C291.43 118.36 316.36 93.4309 316.36 62.6788C316.36 31.9266 291.43 6.99707 260.678 6.99707C229.926 6.99707 204.997 31.9266 204.997 62.6788Z" fill="#00AEEF"/>
<path d="M276.561 39.589C276.085 40.0371 275.474 40.2598 274.722 40.2598C274.058 40.2598 272.92 39.8982 271.304 39.1779C270.041 38.6242 268.811 38.2064 267.597 37.8534V41.6277C268.129 41.8538 268.659 42.0933 269.184 42.38C271.666 43.7368 273.576 45.5666 274.917 47.8754C276.258 50.1843 277.189 53.2842 277.708 57.1786H279.309V36.8846H277.708C277.421 38.2414 277.037 39.1408 276.561 39.589Z" fill="white"/>
<path d="M276.948 69.6634C275.191 68.2851 272.018 66.3503 267.594 63.9213C266.969 63.5779 266.398 63.2561 265.719 62.8915C265.347 62.6921 265.012 62.5032 264.656 62.3083C261.274 60.4591 258.57 58.8083 256.545 57.3563C255.323 56.4799 254.337 55.6727 253.609 54.9406C253.369 54.7 253.14 54.4624 252.954 54.2374C251.715 52.766 251.094 51.1372 251.094 49.3476C251.094 47.2048 251.958 45.2854 253.609 43.5666V38.4943C251.951 39.2346 250.41 40.1781 249.06 41.4508C245.83 44.4953 244.213 48.1208 244.213 52.3334C244.213 54.7567 244.76 56.979 245.858 58.9972C246.955 61.0155 248.562 62.8638 250.682 64.536C251.447 65.139 252.467 65.8425 253.609 66.5941C254.478 67.1665 255.457 67.7818 256.545 68.4402C257.99 69.3147 259.561 70.2386 261.392 71.2646C262.594 71.938 263.677 72.5521 264.655 73.1139C265.787 73.7638 266.767 74.3375 267.6 74.8379C269.055 75.7116 270.065 76.363 270.609 76.7815C271.888 77.7537 272.829 78.8027 273.595 79.8922C273.829 80.2262 274.122 80.547 274.308 80.8923C275.103 82.3635 275.498 83.8192 275.498 85.2626C275.498 85.9805 275.4 86.666 275.24 87.331C274.822 89.0708 273.875 90.6355 272.361 92.0129C270.269 93.9169 267.422 94.8688 263.815 94.8688C260.7 94.8688 257.838 94.1766 255.226 92.7918C252.614 91.4071 250.676 89.6702 249.406 87.5778C249.362 87.5048 249.324 87.4067 249.28 87.331C248.259 85.5638 247.418 83.0694 246.742 79.8922C246.619 79.3102 246.489 78.7523 246.377 78.123H244.776V98.244H246.377C246.578 96.887 246.89 95.9939 247.307 95.5611C247.725 95.1284 248.296 94.912 249.016 94.912C249.768 94.912 251.548 95.3663 254.36 96.275C257.173 97.1837 259.028 97.7093 259.921 97.8545C261.42 98.1141 263.021 98.2439 264.724 98.2439C270.148 98.2439 274.583 96.6367 278.03 93.4191C281.476 90.2017 283.201 86.3722 283.201 81.9308C283.201 79.5941 282.66 77.3595 281.578 75.2236C280.496 73.0881 278.954 71.2366 276.948 69.6634Z" fill="white"/>
<path d="M272.436 84.3931H272.723V82.8301H271.946H270.737C268.514 82.8301 266.866 82.2388 265.795 81.056C265.2 80.3734 264.846 78.8506 264.717 76.5444C263.487 75.8254 261.954 74.9464 259.957 73.8273C258.727 73.1384 257.601 72.4906 256.544 71.8704V74.4664C256.544 77.6767 256.234 79.7314 255.615 80.6337C254.611 82.0832 252.912 82.8111 250.525 82.8249C250.503 82.8251 250.485 82.8301 250.462 82.8301H248.434V84.3931H251.096L272.436 84.3931Z" fill="#00AEEF"/>
<path d="M256.545 30.7047V34.4404V37.5047V41.4343V44.8559V53.6535C257.966 54.862 260.423 56.5723 264.656 58.954V43.6978V40.7099V37.1856V34.2102V30.7047H272.724C275.089 30.7047 276.996 31.0909 278.447 31.8662C279.377 32.3627 280.143 33.0996 280.835 33.9477C281.224 34.424 281.619 34.8909 281.932 35.4779C282.041 35.6852 282.143 35.9394 282.243 36.2032C282.631 37.2295 282.952 38.665 283.199 40.5467H284.805L284.171 27.1142H237.41L236.734 40.5467H238.339C238.536 37.9549 239.157 35.9003 240.198 34.3797C241.239 32.859 242.494 31.83 243.958 31.296C245.083 30.9007 246.984 30.7047 249.66 30.7047L256.545 30.7047Z" fill="#00AEEF"/>
</svg>
